<svg xmlns="http://www.w3.org/2000/svg" viewBox="0 0 512 512"><defs/><rect width="512" height="512" fill="#fff" rx="76.8"/><path fill="#333" d="M429 306c-3-9-4-7 2-20a45 45 0 003-18 4 4 0 00-4-5 4 4 0 00-2 0l-34 15c-11 5-23 7-38 2s-34-16-53-20l-35-7 33-7a467 467 0 0044-17c17-7 29-5 41-1l32 15c4 2 10-2 8-6-3-8-4-20 0-29 6-10 5-12 2-21s-4-8 2-21a45 45 0 003-16 6 6 0 00-8-6l-31 14c-12 5-24 7-38 2l-58-19a6 6 0 01-3-2c-3-4-10-13-16-15-9-3-40-12-52-14s-19-5-24 2l-15 16a6 6 0 01-4 2c-10 0-41 0-71 16a64 64 0 00-35 46 6 6 0 005 7c8 1 22 4 21 9 0 5-6 8-12 10a6 6 0 00-2 9c9 8 27 20 59 26a133 133 0 00-35 12 64 64 0 00-35 48 5 5 0 003 5c8 1 24 5 23 10 0 5-8 8-14 10a4 4 0 00-2 8c10 9 34 26 81 30l23 1c7 9 19 21 37 25 14 4 22 3 27 1a5 5 0 003-8l-13-21 21-2c5-1 62-15 78-23 17-7 29-6 41-1l34 16c4 1 8-2 7-5-3-8-4-24-1-31 5-10 5-12 2-22zM134 197c-6 0-11-6-11-13s5-12 11-12 11 5 11 12-5 13-11 13zm0 117c-6 0-11-6-11-12s5-13 11-13 11 6 11 13-5 12-11 12zm54-4c-1 13-2 18-6 28a7 7 0 01-7 4 7 7 0 01-2-1 7 7 0 01-4-9c3-7 4-11 5-23 1-8-4-14-7-19a7 7 0 0111-8c9 11 10 22 10 28zm0-122c0 11-1 18-6 28a7 7 0 01-7 4 7 7 0 01-2-1 7 7 0 01-4-4 7 7 0 010-5c3-7 4-11 5-23 1-8-4-14-7-19a7 7 0 0111-8c4 5 11 15 10 28zm26-35a450 450 0 0158 6c27 5 59 15 62 16a6 6 0 01-2 13 6 6 0 01-2-1s-33-11-61-16a437 437 0 00-55-5 6 6 0 110-13zm124 146a6 6 0 01-6 4 6 6 0 01-2 0s-33-11-61-16a435 435 0 00-55-6 6 6 0 110-13 448 448 0 0158 6c27 5 59 15 62 17a6 6 0 014 8z"/></svg>